<?xml version="1.0" encoding="UTF-8" standalone="no"?>
<svg
   xmlns:dc="http://purl.org/dc/elements/1.1/"
   xmlns:cc="http://creativecommons.org/ns#"
   xmlns:rdf="http://www.w3.org/1999/02/22-rdf-syntax-ns#"
   xmlns:svg="http://www.w3.org/2000/svg"
   xmlns="http://www.w3.org/2000/svg"
   viewBox="0 0 255.33333 82"
   height="410"
   width="1280"
   xml:space="preserve"
   id="svg2"
   version="1.1"><metadata
     id="metadata8"><rdf:RDF><cc:Work
         rdf:about=""><dc:format>image/svg+xml</dc:format><dc:type
           rdf:resource="http://purl.org/dc/dcmitype/StillImage" /></cc:Work></rdf:RDF></metadata><defs
     id="defs6"><clipPath
       id="clipPath18"
       clipPathUnits="userSpaceOnUse"><path
         id="path16"
         d="M 0,61.5 H 191.5 V 0 H 0 Z" /></clipPath><clipPath
       id="clipPath26"
       clipPathUnits="userSpaceOnUse"><path
         id="path24"
         d="M 5.95726,42.7965 H 10.1818 V 16.3457 H 5.95726 Z" /></clipPath><clipPath
       id="clipPath42"
       clipPathUnits="userSpaceOnUse"><path
         id="path40"
         d="m 181.318,42.7965 h 4.225 V 16.3457 h -4.225 z" /></clipPath><clipPath
       id="clipPath58"
       clipPathUnits="userSpaceOnUse"><path
         id="path56"
         d="m 15.3751,42.7965 h 5.3548 V 16.3457 h -5.3548 z" /></clipPath><clipPath
       id="clipPath74"
       clipPathUnits="userSpaceOnUse"><path
         id="path72"
         d="m 25.8963,42.7965 h 6.2158 V 16.3457 h -6.2158 z" /></clipPath><clipPath
       id="clipPath90"
       clipPathUnits="userSpaceOnUse"><path
         id="path88"
         d="m 159.442,42.7965 h 6.216 V 16.3457 h -6.216 z" /></clipPath><clipPath
       id="clipPath106"
       clipPathUnits="userSpaceOnUse"><path
         id="path104"
         d="m 170.824,42.7965 h 5.355 V 16.3457 h -5.355 z" /></clipPath></defs><g
     transform="matrix(1.3333333,0,0,-1.3333333,0,82)"
     id="g10"><g
       id="g12"><g
         clip-path="url(#clipPath18)"
         id="g14"><g
           id="g20"><g
             id="g22" /><g
             id="g34"><g
               style="opacity:0.39999402"
               id="g32"
               clip-path="url(#clipPath26)"><g
                 id="g30"
                 transform="translate(8.8095,29.4231)"><path
                   id="path28"
                   style="fill:#464646;fill-opacity:1;fill-rule:nonzero;stroke:none"
                   d="M 0,0 C 0,4.548 0.484,9.014 1.372,13.373 H -1.049 C -1.991,9.014 -2.852,4.548 -2.852,0 c 0,-4.44 0.834,-8.799 1.749,-13.077 H 1.292 C 0.484,-8.799 0,-4.44 0,0" /></g></g></g></g><g
           id="g36"><g
             id="g38" /><g
             id="g50"><g
               style="opacity:0.39999402"
               id="g48"
               clip-path="url(#clipPath42)"><g
                 id="g46"
                 transform="translate(182.7174,29.4231)"><path
                   id="path44"
                   style="fill:#464646;fill-opacity:1;fill-rule:nonzero;stroke:none"
                   d="M 0,0 C 0,-4.44 -0.457,-8.826 -1.318,-13.077 H 1.076 C 1.991,-8.799 2.825,-4.44 2.825,0 2.825,4.548 1.964,9.014 1.023,13.373 H -1.399 C -0.484,9.014 0,4.548 0,0" /></g></g></g></g><g
           id="g52"><g
             id="g54" /><g
             id="g66"><g
               style="opacity:0.60000598"
               id="g64"
               clip-path="url(#clipPath58)"><g
                 id="g62"
                 transform="translate(19.3576,29.4231)"><path
                   id="path60"
                   style="fill:#464646;fill-opacity:1;fill-rule:nonzero;stroke:none"
                   d="M 0,0 C 0,4.548 0.484,9.014 1.372,13.373 H -2.18 C -3.121,9.014 -3.982,4.548 -3.982,0 c 0,-4.44 0.834,-8.799 1.749,-13.077 H 1.318 C 0.457,-8.799 0,-4.44 0,0" /></g></g></g></g><g
           id="g68"><g
             id="g70" /><g
             id="g82"><g
               style="opacity:0.80000299"
               id="g80"
               clip-path="url(#clipPath74)"><g
                 id="g78"
                 transform="translate(30.7397,29.4231)"><path
                   id="path76"
                   style="fill:#464646;fill-opacity:1;fill-rule:nonzero;stroke:none"
                   d="M 0,0 C 0,4.548 0.484,9.014 1.372,13.373 H -3.041 C -3.982,9.014 -4.843,4.548 -4.843,0 c 0,-4.44 0.834,-8.799 1.749,-13.077 H 1.292 C 0.457,-8.799 0,-4.44 0,0" /></g></g></g></g><g
           id="g84"><g
             id="g86" /><g
             id="g98"><g
               style="opacity:0.80000299"
               id="g96"
               clip-path="url(#clipPath90)"><g
                 id="g94"
                 transform="translate(163.9085,16.3457)"><path
                   id="path92"
                   style="fill:#464646;fill-opacity:1;fill-rule:nonzero;stroke:none"
                   d="m 0,0 c 0.915,4.278 1.749,8.638 1.749,13.077 0,4.548 -0.861,9.015 -1.803,13.374 H -4.467 C -3.579,22.092 -3.094,17.625 -3.094,13.077 -3.094,8.638 -3.552,4.251 -4.413,0 Z" /></g></g></g></g><g
           id="g100"><g
             id="g102" /><g
             id="g114"><g
               style="opacity:0.60000598"
               id="g112"
               clip-path="url(#clipPath106)"><g
                 id="g110"
                 transform="translate(174.4296,16.3457)"><path
                   id="path108"
                   style="fill:#464646;fill-opacity:1;fill-rule:nonzero;stroke:none"
                   d="m 0,0 c 0.915,4.278 1.749,8.638 1.749,13.077 0,4.548 -0.861,9.015 -1.803,13.374 H -3.606 C -2.718,22.092 -2.233,17.625 -2.233,13.077 -2.233,8.638 -2.691,4.251 -3.552,0 Z" /></g></g></g></g><g
           transform="translate(47.2614,36.8229)"
           id="g116"><path
             id="path118"
             style="fill:#464646;fill-opacity:1;fill-rule:nonzero;stroke:none"
             d="m 0,0 h 4.467 c 1.641,0 2.771,-1.345 2.771,-2.987 0,-1.641 -1.13,-2.987 -2.771,-2.987 H 0 Z m 10.763,-14.504 c -0.215,0 -0.35,0.243 -0.403,0.35 -0.027,0.108 -0.054,0.135 -0.135,0.269 L 7.373,-8.96 c 2.206,1.103 3.848,3.336 3.848,6 0,3.848 -3.122,6.969 -6.97,6.969 H -5.705 V 0.027 h 1.696 v -14.504 h -1.696 v -3.982 h 7.4 v 3.982 H 0 v 4.736 h 2.879 c 0,0 0.323,-0.081 0.754,-0.753 L 6.7,-15.795 c 0.484,-1.076 1.803,-2.691 4.036,-2.691 h 2.126 v 3.982 z" /></g><g
           transform="translate(133.6637,38.8141)"
           id="g120"><path
             id="path122"
             style="fill:#464646;fill-opacity:1;fill-rule:nonzero;stroke:none"
             d="m 0,0 v -15.876 c 0,-0.619 0.215,-0.619 0.431,-0.619 h 0.861 v -3.982 H 0.431 c -2.18,0 -4.413,1.587 -4.413,4.601 v 13.885 h -1.696 v 3.982 l 5.678,0 z" /></g><g
           transform="translate(144.2386,30.5802)"
           id="g124"><path
             id="path126"
             style="fill:#464646;fill-opacity:1;fill-rule:nonzero;stroke:none"
             d="M 0,0 C 1.722,0 2.987,-1.049 3.471,-2.691 H -3.471 C -2.987,-1.049 -1.722,0 0,0 m 0,3.956 c -4.44,0 -7.669,-3.472 -7.669,-8.234 0,-4.709 3.31,-8.234 7.669,-8.234 1.641,0 3.982,0.565 6.377,2.583 l -2.233,2.556 c -2.045,-1.668 -4.924,-1.776 -6.62,-0.188 -0.511,0.484 -0.861,1.076 -1.049,1.722 H 7.669 v 1.561 C 7.696,0.511 4.467,3.956 0,3.956" /></g><g
           transform="translate(119.4023,21.9426)"
           id="g128"><path
             id="path130"
             style="fill:#464646;fill-opacity:1;fill-rule:nonzero;stroke:none"
             d="M 0,0 C -2.422,0 -3.902,1.668 -3.902,4.359 -3.902,7.05 -2.395,8.718 0,8.718 2.422,8.718 3.902,7.05 3.902,4.359 3.929,1.668 2.422,0 0,0 m 0.511,12.593 c -1.641,0 -3.094,-0.484 -4.251,-1.345 v 5.597 1.991 h -5.678 v -3.983 h 1.695 V -3.633 h 3.983 v 1.453 c 1.076,-1.184 2.502,-1.749 4.251,-1.749 4.359,0 7.4,3.391 7.4,8.234 0,4.925 -3.041,8.288 -7.4,8.288" /></g><g
           transform="translate(76.9681,22.3193)"
           id="g132"><path
             id="path134"
             style="fill:#464646;fill-opacity:1;fill-rule:nonzero;stroke:none"
             d="M 0,0 V 11.947 H -5.678 V 7.965 h 1.696 V 2.879 c 0,-2.26 -1.4,-3.148 -3.149,-3.148 -1.722,0 -3.148,0.592 -3.148,3.148 v 9.068 h -5.678 V 7.965 h 1.696 V 1.91 c 0,-2.314 0.888,-4.143 2.072,-5.031 2.341,-1.749 5.973,-1.373 8.529,0.699 0.27,-0.942 0.673,-1.534 1.238,-1.534 h 4.09 V 0.027 L 0,0.027 Z" /></g><g
           transform="translate(107.1322,22.3193)"
           id="g136"><path
             id="path138"
             style="fill:#464646;fill-opacity:1;fill-rule:nonzero;stroke:none"
             d="m 0,0 v 6.054 c 0,2.314 -0.861,4.144 -2.018,5.032 -2.476,1.911 -6.458,1.319 -8.934,-1.291 -0.323,0.538 -0.672,0.968 -1.103,1.291 -2.287,1.749 -5.839,1.373 -8.315,-0.699 -0.242,0.941 -0.645,1.533 -1.21,1.533 h -4.01 V 7.965 h 1.669 V 0 h -1.669 v -3.982 h 7.212 V 0 h -1.669 v 5.086 c 0,2.26 1.373,3.148 3.068,3.148 1.695,0 3.067,-0.592 3.067,-3.148 v -9.068 h 5.57 V 0 h -1.695 v 5.086 c 0,2.287 1.373,3.148 3.068,3.148 1.695,0 3.067,-0.592 3.067,-3.148 v -9.068 h 5.57 l 0,3.982 z" /></g></g></g></g></svg>
